<mxfile host="app.diagrams.net" modified="2024-05-05T01:06:58.743Z" agent="Mozilla/5.0 (Macintosh; Intel Mac OS X 10_15_7) AppleWebKit/537.36 (KHTML, like Gecko) Chrome/124.0.0.0 Safari/537.36" etag="CCXwSX1eqYDM-RZPU2bD" version="22.1.21" type="github">
  <diagram id="C5RBs43oDa-KdzZeNtuy" name="Page-1">
    <mxGraphModel dx="2084" dy="2500" grid="1" gridSize="10" guides="1" tooltips="1" connect="1" arrows="1" fold="1" page="1" pageScale="1" pageWidth="827" pageHeight="1169" math="0" shadow="0">
      <root>
        <mxCell id="WIyWlLk6GJQsqaUBKTNV-0" />
        <mxCell id="WIyWlLk6GJQsqaUBKTNV-1" parent="WIyWlLk6GJQsqaUBKTNV-0" />
        <mxCell id="0GqPbOtMMLJU6Ck_b2OD-5" value="" style="edgeStyle=orthogonalEdgeStyle;rounded=0;orthogonalLoop=1;jettySize=auto;html=1;" edge="1" parent="WIyWlLk6GJQsqaUBKTNV-1" source="0GqPbOtMMLJU6Ck_b2OD-0" target="0GqPbOtMMLJU6Ck_b2OD-1">
          <mxGeometry relative="1" as="geometry" />
        </mxCell>
        <mxCell id="0GqPbOtMMLJU6Ck_b2OD-0" value="Start" style="rounded=0;whiteSpace=wrap;html=1;" vertex="1" parent="WIyWlLk6GJQsqaUBKTNV-1">
          <mxGeometry x="-165" y="10" width="50" height="30" as="geometry" />
        </mxCell>
        <mxCell id="0GqPbOtMMLJU6Ck_b2OD-7" value="keyPress&lt;br&gt;Activation&lt;br&gt;Enabled" style="edgeStyle=orthogonalEdgeStyle;rounded=0;orthogonalLoop=1;jettySize=auto;html=1;" edge="1" parent="WIyWlLk6GJQsqaUBKTNV-1" source="0GqPbOtMMLJU6Ck_b2OD-1" target="0GqPbOtMMLJU6Ck_b2OD-6">
          <mxGeometry relative="1" as="geometry" />
        </mxCell>
        <mxCell id="0GqPbOtMMLJU6Ck_b2OD-9" value="" style="edgeStyle=orthogonalEdgeStyle;rounded=0;orthogonalLoop=1;jettySize=auto;html=1;" edge="1" parent="WIyWlLk6GJQsqaUBKTNV-1" source="0GqPbOtMMLJU6Ck_b2OD-1" target="0GqPbOtMMLJU6Ck_b2OD-8">
          <mxGeometry relative="1" as="geometry" />
        </mxCell>
        <mxCell id="0GqPbOtMMLJU6Ck_b2OD-10" value="Keyword&lt;br&gt;Activation&lt;br&gt;Enabled" style="edgeLabel;html=1;align=center;verticalAlign=middle;resizable=0;points=[];" vertex="1" connectable="0" parent="0GqPbOtMMLJU6Ck_b2OD-9">
          <mxGeometry x="-0.0667" y="-2" relative="1" as="geometry">
            <mxPoint as="offset" />
          </mxGeometry>
        </mxCell>
        <mxCell id="0GqPbOtMMLJU6Ck_b2OD-1" value="Engage Listening&lt;br&gt;Engine" style="rhombus;whiteSpace=wrap;html=1;" vertex="1" parent="WIyWlLk6GJQsqaUBKTNV-1">
          <mxGeometry x="-180" y="80" width="80" height="80" as="geometry" />
        </mxCell>
        <mxCell id="0GqPbOtMMLJU6Ck_b2OD-23" style="edgeStyle=orthogonalEdgeStyle;rounded=0;orthogonalLoop=1;jettySize=auto;html=1;exitX=0;exitY=0.5;exitDx=0;exitDy=0;entryX=0;entryY=0.5;entryDx=0;entryDy=0;" edge="1" parent="WIyWlLk6GJQsqaUBKTNV-1" source="0GqPbOtMMLJU6Ck_b2OD-6" target="0GqPbOtMMLJU6Ck_b2OD-11">
          <mxGeometry relative="1" as="geometry" />
        </mxCell>
        <mxCell id="0GqPbOtMMLJU6Ck_b2OD-24" value="While key&amp;nbsp;&lt;br&gt;is pressed" style="edgeLabel;html=1;align=center;verticalAlign=middle;resizable=0;points=[];" vertex="1" connectable="0" parent="0GqPbOtMMLJU6Ck_b2OD-23">
          <mxGeometry x="-0.32" y="-1" relative="1" as="geometry">
            <mxPoint as="offset" />
          </mxGeometry>
        </mxCell>
        <mxCell id="0GqPbOtMMLJU6Ck_b2OD-6" value="Press and &lt;br&gt;hold of key Required?" style="rhombus;whiteSpace=wrap;html=1;" vertex="1" parent="WIyWlLk6GJQsqaUBKTNV-1">
          <mxGeometry x="-380" y="70" width="110" height="100" as="geometry" />
        </mxCell>
        <mxCell id="0GqPbOtMMLJU6Ck_b2OD-16" value="" style="edgeStyle=orthogonalEdgeStyle;rounded=0;orthogonalLoop=1;jettySize=auto;html=1;" edge="1" parent="WIyWlLk6GJQsqaUBKTNV-1" source="0GqPbOtMMLJU6Ck_b2OD-8" target="0GqPbOtMMLJU6Ck_b2OD-15">
          <mxGeometry relative="1" as="geometry" />
        </mxCell>
        <mxCell id="0GqPbOtMMLJU6Ck_b2OD-21" value="Keyword Detected" style="edgeLabel;html=1;align=center;verticalAlign=middle;resizable=0;points=[];" vertex="1" connectable="0" parent="0GqPbOtMMLJU6Ck_b2OD-16">
          <mxGeometry x="-0.125" y="-2" relative="1" as="geometry">
            <mxPoint as="offset" />
          </mxGeometry>
        </mxCell>
        <mxCell id="0GqPbOtMMLJU6Ck_b2OD-8" value="Listen for Keyword" style="whiteSpace=wrap;html=1;" vertex="1" parent="WIyWlLk6GJQsqaUBKTNV-1">
          <mxGeometry x="-40" y="90" width="120" height="60" as="geometry" />
        </mxCell>
        <mxCell id="0GqPbOtMMLJU6Ck_b2OD-27" value="" style="edgeStyle=orthogonalEdgeStyle;rounded=0;orthogonalLoop=1;jettySize=auto;html=1;" edge="1" parent="WIyWlLk6GJQsqaUBKTNV-1" source="0GqPbOtMMLJU6Ck_b2OD-11" target="0GqPbOtMMLJU6Ck_b2OD-26">
          <mxGeometry relative="1" as="geometry">
            <Array as="points">
              <mxPoint x="-170" y="420" />
              <mxPoint x="-220" y="420" />
            </Array>
          </mxGeometry>
        </mxCell>
        <mxCell id="0GqPbOtMMLJU6Ck_b2OD-28" value="Speech Detected" style="edgeLabel;html=1;align=center;verticalAlign=middle;resizable=0;points=[];" vertex="1" connectable="0" parent="0GqPbOtMMLJU6Ck_b2OD-27">
          <mxGeometry x="-0.0231" relative="1" as="geometry">
            <mxPoint y="10" as="offset" />
          </mxGeometry>
        </mxCell>
        <mxCell id="0GqPbOtMMLJU6Ck_b2OD-30" value="" style="edgeStyle=orthogonalEdgeStyle;rounded=0;orthogonalLoop=1;jettySize=auto;html=1;entryX=0;entryY=0;entryDx=0;entryDy=0;exitX=1;exitY=0.75;exitDx=0;exitDy=0;" edge="1" parent="WIyWlLk6GJQsqaUBKTNV-1" source="0GqPbOtMMLJU6Ck_b2OD-11" target="0GqPbOtMMLJU6Ck_b2OD-29">
          <mxGeometry relative="1" as="geometry">
            <mxPoint x="50" y="440" as="targetPoint" />
            <Array as="points">
              <mxPoint x="-80" y="360" />
              <mxPoint x="30" y="360" />
            </Array>
          </mxGeometry>
        </mxCell>
        <mxCell id="0GqPbOtMMLJU6Ck_b2OD-39" value="Silence Detected" style="edgeLabel;html=1;align=center;verticalAlign=middle;resizable=0;points=[];" vertex="1" connectable="0" parent="0GqPbOtMMLJU6Ck_b2OD-30">
          <mxGeometry x="-0.5167" y="4" relative="1" as="geometry">
            <mxPoint y="9" as="offset" />
          </mxGeometry>
        </mxCell>
        <mxCell id="0GqPbOtMMLJU6Ck_b2OD-11" value="Listen for Speech" style="whiteSpace=wrap;html=1;" vertex="1" parent="WIyWlLk6GJQsqaUBKTNV-1">
          <mxGeometry x="-200" y="320" width="120" height="60" as="geometry" />
        </mxCell>
        <mxCell id="0GqPbOtMMLJU6Ck_b2OD-13" value="" style="endArrow=classic;html=1;rounded=0;exitX=0.5;exitY=1;exitDx=0;exitDy=0;entryX=0;entryY=0;entryDx=0;entryDy=0;" edge="1" parent="WIyWlLk6GJQsqaUBKTNV-1" source="0GqPbOtMMLJU6Ck_b2OD-6" target="0GqPbOtMMLJU6Ck_b2OD-11">
          <mxGeometry width="50" height="50" relative="1" as="geometry">
            <mxPoint x="-240" y="240" as="sourcePoint" />
            <mxPoint x="-190" y="190" as="targetPoint" />
            <Array as="points">
              <mxPoint x="-200" y="170" />
            </Array>
          </mxGeometry>
        </mxCell>
        <mxCell id="0GqPbOtMMLJU6Ck_b2OD-14" value="No" style="edgeLabel;html=1;align=center;verticalAlign=middle;resizable=0;points=[];" vertex="1" connectable="0" parent="0GqPbOtMMLJU6Ck_b2OD-13">
          <mxGeometry x="-0.4754" y="2" relative="1" as="geometry">
            <mxPoint as="offset" />
          </mxGeometry>
        </mxCell>
        <mxCell id="0GqPbOtMMLJU6Ck_b2OD-22" style="edgeStyle=orthogonalEdgeStyle;rounded=0;orthogonalLoop=1;jettySize=auto;html=1;exitX=0;exitY=0.5;exitDx=0;exitDy=0;" edge="1" parent="WIyWlLk6GJQsqaUBKTNV-1" source="0GqPbOtMMLJU6Ck_b2OD-15">
          <mxGeometry relative="1" as="geometry">
            <mxPoint x="-80" y="320" as="targetPoint" />
            <Array as="points">
              <mxPoint x="-80" y="260" />
              <mxPoint x="-80" y="320" />
            </Array>
          </mxGeometry>
        </mxCell>
        <mxCell id="0GqPbOtMMLJU6Ck_b2OD-15" value="Greet User" style="whiteSpace=wrap;html=1;" vertex="1" parent="WIyWlLk6GJQsqaUBKTNV-1">
          <mxGeometry x="-40" y="230" width="120" height="60" as="geometry" />
        </mxCell>
        <mxCell id="0GqPbOtMMLJU6Ck_b2OD-32" value="" style="edgeStyle=orthogonalEdgeStyle;rounded=0;orthogonalLoop=1;jettySize=auto;html=1;entryX=0;entryY=0.5;entryDx=0;entryDy=0;" edge="1" parent="WIyWlLk6GJQsqaUBKTNV-1" source="0GqPbOtMMLJU6Ck_b2OD-26" target="0GqPbOtMMLJU6Ck_b2OD-31">
          <mxGeometry relative="1" as="geometry">
            <Array as="points">
              <mxPoint x="-140" y="500" />
              <mxPoint x="-140" y="650" />
            </Array>
          </mxGeometry>
        </mxCell>
        <mxCell id="0GqPbOtMMLJU6Ck_b2OD-34" value="Command&lt;br&gt;Detected" style="edgeLabel;html=1;align=center;verticalAlign=middle;resizable=0;points=[];" vertex="1" connectable="0" parent="0GqPbOtMMLJU6Ck_b2OD-32">
          <mxGeometry x="-0.1111" y="3" relative="1" as="geometry">
            <mxPoint as="offset" />
          </mxGeometry>
        </mxCell>
        <mxCell id="0GqPbOtMMLJU6Ck_b2OD-36" value="" style="edgeStyle=orthogonalEdgeStyle;rounded=0;orthogonalLoop=1;jettySize=auto;html=1;" edge="1" parent="WIyWlLk6GJQsqaUBKTNV-1" source="0GqPbOtMMLJU6Ck_b2OD-26" target="0GqPbOtMMLJU6Ck_b2OD-35">
          <mxGeometry relative="1" as="geometry" />
        </mxCell>
        <mxCell id="0GqPbOtMMLJU6Ck_b2OD-37" value="Hallucination&lt;br&gt;Detected" style="edgeLabel;html=1;align=center;verticalAlign=middle;resizable=0;points=[];" vertex="1" connectable="0" parent="0GqPbOtMMLJU6Ck_b2OD-36">
          <mxGeometry x="0.3333" relative="1" as="geometry">
            <mxPoint as="offset" />
          </mxGeometry>
        </mxCell>
        <mxCell id="0GqPbOtMMLJU6Ck_b2OD-45" value="" style="edgeStyle=orthogonalEdgeStyle;rounded=0;orthogonalLoop=1;jettySize=auto;html=1;entryX=1;entryY=0.5;entryDx=0;entryDy=0;" edge="1" parent="WIyWlLk6GJQsqaUBKTNV-1" source="0GqPbOtMMLJU6Ck_b2OD-26" target="0GqPbOtMMLJU6Ck_b2OD-47">
          <mxGeometry relative="1" as="geometry">
            <mxPoint x="-320" y="500" as="targetPoint" />
          </mxGeometry>
        </mxCell>
        <mxCell id="0GqPbOtMMLJU6Ck_b2OD-26" value="Handle Speech" style="rhombus;whiteSpace=wrap;html=1;" vertex="1" parent="WIyWlLk6GJQsqaUBKTNV-1">
          <mxGeometry x="-260" y="460" width="80" height="80" as="geometry" />
        </mxCell>
        <mxCell id="0GqPbOtMMLJU6Ck_b2OD-64" value="" style="edgeStyle=orthogonalEdgeStyle;rounded=0;orthogonalLoop=1;jettySize=auto;html=1;entryX=0;entryY=0.5;entryDx=0;entryDy=0;" edge="1" parent="WIyWlLk6GJQsqaUBKTNV-1" source="0GqPbOtMMLJU6Ck_b2OD-29" target="0GqPbOtMMLJU6Ck_b2OD-69">
          <mxGeometry relative="1" as="geometry">
            <mxPoint x="150" y="490" as="targetPoint" />
            <Array as="points" />
          </mxGeometry>
        </mxCell>
        <mxCell id="0GqPbOtMMLJU6Ck_b2OD-68" value="Yes" style="edgeLabel;html=1;align=center;verticalAlign=middle;resizable=0;points=[];" vertex="1" connectable="0" parent="0GqPbOtMMLJU6Ck_b2OD-64">
          <mxGeometry x="-0.5333" relative="1" as="geometry">
            <mxPoint as="offset" />
          </mxGeometry>
        </mxCell>
        <mxCell id="0GqPbOtMMLJU6Ck_b2OD-85" value="Increment Timeout Count" style="edgeStyle=orthogonalEdgeStyle;rounded=0;orthogonalLoop=1;jettySize=auto;html=1;exitX=0.5;exitY=0;exitDx=0;exitDy=0;" edge="1" parent="WIyWlLk6GJQsqaUBKTNV-1" source="0GqPbOtMMLJU6Ck_b2OD-29">
          <mxGeometry relative="1" as="geometry">
            <mxPoint x="-80" y="350" as="targetPoint" />
            <Array as="points">
              <mxPoint x="50" y="350" />
              <mxPoint x="-80" y="350" />
            </Array>
          </mxGeometry>
        </mxCell>
        <mxCell id="0GqPbOtMMLJU6Ck_b2OD-29" value="Check Conversation Timeout" style="rhombus;whiteSpace=wrap;html=1;" vertex="1" parent="WIyWlLk6GJQsqaUBKTNV-1">
          <mxGeometry x="10" y="450" width="80" height="80" as="geometry" />
        </mxCell>
        <mxCell id="0GqPbOtMMLJU6Ck_b2OD-33" style="edgeStyle=orthogonalEdgeStyle;rounded=0;orthogonalLoop=1;jettySize=auto;html=1;exitX=0.5;exitY=0;exitDx=0;exitDy=0;entryX=0.583;entryY=1.033;entryDx=0;entryDy=0;entryPerimeter=0;" edge="1" parent="WIyWlLk6GJQsqaUBKTNV-1" source="0GqPbOtMMLJU6Ck_b2OD-31" target="0GqPbOtMMLJU6Ck_b2OD-11">
          <mxGeometry relative="1" as="geometry">
            <Array as="points">
              <mxPoint x="-70" y="440" />
              <mxPoint x="-130" y="440" />
            </Array>
          </mxGeometry>
        </mxCell>
        <mxCell id="0GqPbOtMMLJU6Ck_b2OD-31" value="Handle Command" style="whiteSpace=wrap;html=1;" vertex="1" parent="WIyWlLk6GJQsqaUBKTNV-1">
          <mxGeometry x="-130" y="620" width="120" height="60" as="geometry" />
        </mxCell>
        <mxCell id="0GqPbOtMMLJU6Ck_b2OD-38" style="edgeStyle=orthogonalEdgeStyle;rounded=0;orthogonalLoop=1;jettySize=auto;html=1;exitX=0.75;exitY=1;exitDx=0;exitDy=0;entryX=0.5;entryY=1;entryDx=0;entryDy=0;" edge="1" parent="WIyWlLk6GJQsqaUBKTNV-1" source="0GqPbOtMMLJU6Ck_b2OD-35" target="0GqPbOtMMLJU6Ck_b2OD-29">
          <mxGeometry relative="1" as="geometry" />
        </mxCell>
        <mxCell id="0GqPbOtMMLJU6Ck_b2OD-40" value="Treat as Silence Detected" style="edgeLabel;html=1;align=center;verticalAlign=middle;resizable=0;points=[];" vertex="1" connectable="0" parent="0GqPbOtMMLJU6Ck_b2OD-38">
          <mxGeometry x="-0.3783" y="-4" relative="1" as="geometry">
            <mxPoint as="offset" />
          </mxGeometry>
        </mxCell>
        <mxCell id="0GqPbOtMMLJU6Ck_b2OD-35" value="Handle Hallucination" style="whiteSpace=wrap;html=1;" vertex="1" parent="WIyWlLk6GJQsqaUBKTNV-1">
          <mxGeometry x="-280" y="620" width="120" height="60" as="geometry" />
        </mxCell>
        <mxCell id="0GqPbOtMMLJU6Ck_b2OD-51" value="" style="edgeStyle=orthogonalEdgeStyle;rounded=0;orthogonalLoop=1;jettySize=auto;html=1;" edge="1" parent="WIyWlLk6GJQsqaUBKTNV-1" source="0GqPbOtMMLJU6Ck_b2OD-47" target="0GqPbOtMMLJU6Ck_b2OD-50">
          <mxGeometry relative="1" as="geometry" />
        </mxCell>
        <mxCell id="0GqPbOtMMLJU6Ck_b2OD-47" value="Route speech to Configured API&lt;br&gt;(Ollama, OpenAPI)" style="rounded=0;whiteSpace=wrap;html=1;" vertex="1" parent="WIyWlLk6GJQsqaUBKTNV-1">
          <mxGeometry x="-430" y="470" width="120" height="60" as="geometry" />
        </mxCell>
        <mxCell id="0GqPbOtMMLJU6Ck_b2OD-55" value="" style="edgeStyle=orthogonalEdgeStyle;rounded=0;orthogonalLoop=1;jettySize=auto;html=1;" edge="1" parent="WIyWlLk6GJQsqaUBKTNV-1" source="0GqPbOtMMLJU6Ck_b2OD-50" target="0GqPbOtMMLJU6Ck_b2OD-54">
          <mxGeometry relative="1" as="geometry" />
        </mxCell>
        <mxCell id="0GqPbOtMMLJU6Ck_b2OD-50" value="Add user input to&lt;br&gt;conversation history" style="whiteSpace=wrap;html=1;rounded=0;" vertex="1" parent="WIyWlLk6GJQsqaUBKTNV-1">
          <mxGeometry x="-430" y="610" width="120" height="60" as="geometry" />
        </mxCell>
        <mxCell id="0GqPbOtMMLJU6Ck_b2OD-57" value="" style="edgeStyle=orthogonalEdgeStyle;rounded=0;orthogonalLoop=1;jettySize=auto;html=1;" edge="1" parent="WIyWlLk6GJQsqaUBKTNV-1" source="0GqPbOtMMLJU6Ck_b2OD-54" target="0GqPbOtMMLJU6Ck_b2OD-56">
          <mxGeometry relative="1" as="geometry" />
        </mxCell>
        <mxCell id="0GqPbOtMMLJU6Ck_b2OD-58" value="Context&lt;br&gt;Exceeded" style="edgeLabel;html=1;align=center;verticalAlign=middle;resizable=0;points=[];" vertex="1" connectable="0" parent="0GqPbOtMMLJU6Ck_b2OD-57">
          <mxGeometry x="-0.0933" y="3" relative="1" as="geometry">
            <mxPoint as="offset" />
          </mxGeometry>
        </mxCell>
        <mxCell id="0GqPbOtMMLJU6Ck_b2OD-80" value="" style="edgeStyle=orthogonalEdgeStyle;rounded=0;orthogonalLoop=1;jettySize=auto;html=1;" edge="1" parent="WIyWlLk6GJQsqaUBKTNV-1" source="0GqPbOtMMLJU6Ck_b2OD-54" target="0GqPbOtMMLJU6Ck_b2OD-79">
          <mxGeometry relative="1" as="geometry" />
        </mxCell>
        <mxCell id="0GqPbOtMMLJU6Ck_b2OD-81" value="Context not&lt;br&gt;exceeded" style="edgeLabel;html=1;align=center;verticalAlign=middle;resizable=0;points=[];" vertex="1" connectable="0" parent="0GqPbOtMMLJU6Ck_b2OD-80">
          <mxGeometry x="0.0035" y="-1" relative="1" as="geometry">
            <mxPoint as="offset" />
          </mxGeometry>
        </mxCell>
        <mxCell id="0GqPbOtMMLJU6Ck_b2OD-54" value="Check &lt;br&gt;History Context Size" style="rhombus;whiteSpace=wrap;html=1;rounded=0;" vertex="1" parent="WIyWlLk6GJQsqaUBKTNV-1">
          <mxGeometry x="-425" y="740" width="110" height="100" as="geometry" />
        </mxCell>
        <mxCell id="0GqPbOtMMLJU6Ck_b2OD-82" style="edgeStyle=orthogonalEdgeStyle;rounded=0;orthogonalLoop=1;jettySize=auto;html=1;exitX=0.5;exitY=1;exitDx=0;exitDy=0;entryX=0;entryY=0.5;entryDx=0;entryDy=0;" edge="1" parent="WIyWlLk6GJQsqaUBKTNV-1" source="0GqPbOtMMLJU6Ck_b2OD-56" target="0GqPbOtMMLJU6Ck_b2OD-79">
          <mxGeometry relative="1" as="geometry" />
        </mxCell>
        <mxCell id="0GqPbOtMMLJU6Ck_b2OD-56" value="Commit excess context to VectorDB" style="whiteSpace=wrap;html=1;rounded=0;" vertex="1" parent="WIyWlLk6GJQsqaUBKTNV-1">
          <mxGeometry x="-620" y="760" width="120" height="60" as="geometry" />
        </mxCell>
        <mxCell id="0GqPbOtMMLJU6Ck_b2OD-67" style="edgeStyle=orthogonalEdgeStyle;rounded=0;orthogonalLoop=1;jettySize=auto;html=1;exitX=0.5;exitY=0;exitDx=0;exitDy=0;entryX=0.851;entryY=0.323;entryDx=0;entryDy=0;entryPerimeter=0;" edge="1" parent="WIyWlLk6GJQsqaUBKTNV-1" source="0GqPbOtMMLJU6Ck_b2OD-65" target="0GqPbOtMMLJU6Ck_b2OD-1">
          <mxGeometry relative="1" as="geometry">
            <Array as="points">
              <mxPoint x="210" y="70" />
              <mxPoint x="-110" y="70" />
              <mxPoint x="-110" y="100" />
              <mxPoint x="-112" y="100" />
            </Array>
          </mxGeometry>
        </mxCell>
        <mxCell id="0GqPbOtMMLJU6Ck_b2OD-65" value="Write Conversation to VectorDB" style="whiteSpace=wrap;html=1;" vertex="1" parent="WIyWlLk6GJQsqaUBKTNV-1">
          <mxGeometry x="150" y="240" width="120" height="60" as="geometry" />
        </mxCell>
        <mxCell id="0GqPbOtMMLJU6Ck_b2OD-72" value="" style="edgeStyle=orthogonalEdgeStyle;rounded=0;orthogonalLoop=1;jettySize=auto;html=1;" edge="1" parent="WIyWlLk6GJQsqaUBKTNV-1" source="0GqPbOtMMLJU6Ck_b2OD-69" target="0GqPbOtMMLJU6Ck_b2OD-71">
          <mxGeometry relative="1" as="geometry" />
        </mxCell>
        <mxCell id="0GqPbOtMMLJU6Ck_b2OD-73" value="yes" style="edgeLabel;html=1;align=center;verticalAlign=middle;resizable=0;points=[];" vertex="1" connectable="0" parent="0GqPbOtMMLJU6Ck_b2OD-72">
          <mxGeometry x="-0.2696" y="-2" relative="1" as="geometry">
            <mxPoint as="offset" />
          </mxGeometry>
        </mxCell>
        <mxCell id="0GqPbOtMMLJU6Ck_b2OD-77" value="No" style="edgeStyle=orthogonalEdgeStyle;rounded=0;orthogonalLoop=1;jettySize=auto;html=1;exitX=1;exitY=0.5;exitDx=0;exitDy=0;entryX=0.644;entryY=0.171;entryDx=0;entryDy=0;entryPerimeter=0;" edge="1" parent="WIyWlLk6GJQsqaUBKTNV-1" source="0GqPbOtMMLJU6Ck_b2OD-69" target="0GqPbOtMMLJU6Ck_b2OD-1">
          <mxGeometry relative="1" as="geometry">
            <Array as="points">
              <mxPoint x="290" y="490" />
              <mxPoint x="290" y="50" />
              <mxPoint x="-130" y="50" />
              <mxPoint x="-130" y="88" />
              <mxPoint x="-128" y="88" />
            </Array>
          </mxGeometry>
        </mxCell>
        <mxCell id="0GqPbOtMMLJU6Ck_b2OD-69" value="Is there a conversation history?" style="rhombus;whiteSpace=wrap;html=1;" vertex="1" parent="WIyWlLk6GJQsqaUBKTNV-1">
          <mxGeometry x="170" y="450" width="80" height="80" as="geometry" />
        </mxCell>
        <mxCell id="0GqPbOtMMLJU6Ck_b2OD-74" style="edgeStyle=orthogonalEdgeStyle;rounded=0;orthogonalLoop=1;jettySize=auto;html=1;exitX=0.5;exitY=0;exitDx=0;exitDy=0;" edge="1" parent="WIyWlLk6GJQsqaUBKTNV-1" source="0GqPbOtMMLJU6Ck_b2OD-71" target="0GqPbOtMMLJU6Ck_b2OD-65">
          <mxGeometry relative="1" as="geometry" />
        </mxCell>
        <mxCell id="0GqPbOtMMLJU6Ck_b2OD-71" value="Overwrite Cache with conversation" style="whiteSpace=wrap;html=1;" vertex="1" parent="WIyWlLk6GJQsqaUBKTNV-1">
          <mxGeometry x="150" y="360" width="120" height="50" as="geometry" />
        </mxCell>
        <mxCell id="0GqPbOtMMLJU6Ck_b2OD-84" value="" style="edgeStyle=orthogonalEdgeStyle;rounded=0;orthogonalLoop=1;jettySize=auto;html=1;" edge="1" parent="WIyWlLk6GJQsqaUBKTNV-1" source="0GqPbOtMMLJU6Ck_b2OD-79" target="0GqPbOtMMLJU6Ck_b2OD-86">
          <mxGeometry relative="1" as="geometry">
            <mxPoint x="-229.9999999999999" y="970" as="targetPoint" />
          </mxGeometry>
        </mxCell>
        <mxCell id="0GqPbOtMMLJU6Ck_b2OD-79" value="Prepend list of available function to prompt" style="whiteSpace=wrap;html=1;rounded=0;" vertex="1" parent="WIyWlLk6GJQsqaUBKTNV-1">
          <mxGeometry x="-430" y="940" width="120" height="60" as="geometry" />
        </mxCell>
        <mxCell id="0GqPbOtMMLJU6Ck_b2OD-90" value="" style="edgeStyle=orthogonalEdgeStyle;rounded=0;orthogonalLoop=1;jettySize=auto;html=1;" edge="1" parent="WIyWlLk6GJQsqaUBKTNV-1" source="0GqPbOtMMLJU6Ck_b2OD-86" target="0GqPbOtMMLJU6Ck_b2OD-89">
          <mxGeometry relative="1" as="geometry" />
        </mxCell>
        <mxCell id="0GqPbOtMMLJU6Ck_b2OD-94" value="No" style="edgeLabel;html=1;align=center;verticalAlign=middle;resizable=0;points=[];" vertex="1" connectable="0" parent="0GqPbOtMMLJU6Ck_b2OD-90">
          <mxGeometry x="-0.3849" y="3" relative="1" as="geometry">
            <mxPoint as="offset" />
          </mxGeometry>
        </mxCell>
        <mxCell id="0GqPbOtMMLJU6Ck_b2OD-93" value="" style="edgeStyle=orthogonalEdgeStyle;rounded=0;orthogonalLoop=1;jettySize=auto;html=1;" edge="1" parent="WIyWlLk6GJQsqaUBKTNV-1" source="0GqPbOtMMLJU6Ck_b2OD-86" target="0GqPbOtMMLJU6Ck_b2OD-92">
          <mxGeometry relative="1" as="geometry" />
        </mxCell>
        <mxCell id="0GqPbOtMMLJU6Ck_b2OD-95" value="Yes" style="edgeLabel;html=1;align=center;verticalAlign=middle;resizable=0;points=[];" vertex="1" connectable="0" parent="0GqPbOtMMLJU6Ck_b2OD-93">
          <mxGeometry x="-0.1282" relative="1" as="geometry">
            <mxPoint as="offset" />
          </mxGeometry>
        </mxCell>
        <mxCell id="0GqPbOtMMLJU6Ck_b2OD-86" value="Function Call &lt;br&gt;needed to satisfy Prompt?" style="rhombus;whiteSpace=wrap;html=1;" vertex="1" parent="WIyWlLk6GJQsqaUBKTNV-1">
          <mxGeometry x="-230" y="900" width="140" height="140" as="geometry" />
        </mxCell>
        <mxCell id="0GqPbOtMMLJU6Ck_b2OD-91" style="edgeStyle=orthogonalEdgeStyle;rounded=0;orthogonalLoop=1;jettySize=auto;html=1;exitX=0.5;exitY=0;exitDx=0;exitDy=0;entryX=1;entryY=0.25;entryDx=0;entryDy=0;" edge="1" parent="WIyWlLk6GJQsqaUBKTNV-1" source="0GqPbOtMMLJU6Ck_b2OD-89" target="0GqPbOtMMLJU6Ck_b2OD-11">
          <mxGeometry relative="1" as="geometry" />
        </mxCell>
        <mxCell id="0GqPbOtMMLJU6Ck_b2OD-89" value="Send Response to TTS engine" style="whiteSpace=wrap;html=1;" vertex="1" parent="WIyWlLk6GJQsqaUBKTNV-1">
          <mxGeometry x="70" y="940" width="120" height="60" as="geometry" />
        </mxCell>
        <mxCell id="0GqPbOtMMLJU6Ck_b2OD-96" style="edgeStyle=orthogonalEdgeStyle;rounded=0;orthogonalLoop=1;jettySize=auto;html=1;exitX=1;exitY=0.5;exitDx=0;exitDy=0;" edge="1" parent="WIyWlLk6GJQsqaUBKTNV-1" source="0GqPbOtMMLJU6Ck_b2OD-92" target="0GqPbOtMMLJU6Ck_b2OD-89">
          <mxGeometry relative="1" as="geometry" />
        </mxCell>
        <mxCell id="0GqPbOtMMLJU6Ck_b2OD-92" value="Execute Function Call" style="whiteSpace=wrap;html=1;" vertex="1" parent="WIyWlLk6GJQsqaUBKTNV-1">
          <mxGeometry x="-220" y="1100" width="120" height="60" as="geometry" />
        </mxCell>
      </root>
    </mxGraphModel>
  </diagram>
</mxfile>
